<?xml version="1.0" encoding="UTF-8"?>
<svg width="81px" height="84px" viewBox="0 0 81 84" version="1.1" xmlns="http://www.w3.org/2000/svg" xmlns:xlink="http://www.w3.org/1999/xlink">
    <!-- Generator: sketchtool 42 (36781) - http://www.bohemiancoding.com/sketch -->
    <title>BA6DB4FA-15CB-4AEA-8AC1-5D269859D135</title>
    <desc>Created with sketchtool.</desc>
    <defs></defs>
    <g id="Website" stroke="none" stroke-width="1" fill="none" fill-rule="evenodd" opacity="0.05">
        <g id="Desktop-/-First-Page" transform="translate(-479.000000, -204.000000)">
            <g id="Icons" transform="translate(-630.000000, 46.000000)">
                <g transform="translate(761.000000, 0.000000)" id="Bread">
                    <g transform="translate(389.976956, 200.125012) rotate(-23.000000) translate(-389.976956, -200.125012) translate(353.476956, 162.625012)">
                        <path d="M3.93469365,35.0073256 C3.93065359,35.1778754 3.92862221,35.3489229 3.92862221,35.5204452 L3.92862221,52.9864895 C3.92862221,64.7283155 13.4403497,74.2271554 25.1736602,74.2271554 L37.6842952,74.2271554 C49.4274058,74.2271554 58.9293332,64.7173854 58.9293332,52.9864895 L58.9293332,35.5204452 C58.9293332,35.3486896 58.927298,35.1774139 58.9232504,35.0066409 C61.4004293,31.5347888 62.8579554,27.2859747 62.8579554,22.6970578 L62.8579554,26.9428968 C62.8579554,15.221973 53.5815412,3.66850471 42.1385044,1.14295361 C42.1385044,1.14295361 40.9537198,-1.28632748e-13 32.1344639,-1.27897692e-13 C23.315208,-1.27162637e-13 20.7734556,1.3257019 20.7734556,1.3257019 C9.27025057,3.59561267 -1.17239551e-13,15.2195327 -1.17239551e-13,26.9428968 L-1.17239551e-13,22.6970578 C-1.17239551e-13,27.2857886 1.45732609,31.5350506 3.93469365,35.0073256 Z" id="Rectangle-17" stroke="#FC5314" stroke-width="3" fill="#FFFFFF"></path>
                        <path d="M13.316478,35.0073256 C13.312438,35.1778754 13.3104066,35.3489229 13.3104066,35.5204452 L13.3104066,52.9864895 C13.3104066,64.7283155 22.8221341,74.2271554 34.5554446,74.2271554 L47.0660796,74.2271554 C58.8091902,74.2271554 68.3111176,64.7173854 68.3111176,52.9864895 L68.3111176,35.5204452 C68.3111176,35.3486896 68.3090824,35.1774139 68.3050348,35.0066409 C70.7822137,31.5347888 72.2397398,27.2859747 72.2397398,22.6970578 L72.2397398,26.9428968 C72.2397398,15.221973 62.9633256,3.66850471 51.5202888,1.14295361 C51.5202888,1.14295361 50.3355042,1.12951783e-13 41.5162483,1.13686838e-13 C32.6969924,1.14421893e-13 30.15524,1.3257019 30.15524,1.3257019 C18.652035,3.59561267 9.38178439,15.2195327 9.38178439,26.9428968 L9.38178439,22.6970578 C9.38178439,27.2857886 10.8391105,31.5350506 13.316478,35.0073256 Z" id="Rectangle-17-Copy-2" stroke="#FC5314" stroke-width="3" fill="#FFFFFF"></path>
                        <ellipse id="Oval-29" fill="#709AE2" cx="36.5889591" cy="9.39584246" rx="1.87635688" ry="1.87916849"></ellipse>
                        <path d="M42.2180297,10.3354267 C42.2180297,10.3354267 49.1718559,10.3354267 54.4483371,14.7376902 C59.7248182,19.1399537 61.5846046,26.2968657 61.5846046,26.2968657" id="Path-35" stroke="#709AE2" stroke-width="3" stroke-linecap="round"></path>
                    </g>
                </g>
            </g>
        </g>
    </g>
</svg>