<?xml version="1.0" encoding="UTF-8"?>
<svg width="103px" height="83px" viewBox="0 0 103 83" version="1.1" xmlns="http://www.w3.org/2000/svg" xmlns:xlink="http://www.w3.org/1999/xlink">
    <!-- Generator: sketchtool 42 (36781) - http://www.bohemiancoding.com/sketch -->
    <title>6341A572-38D6-4E71-BD55-AC826C5505D2</title>
    <desc>Created with sketchtool.</desc>
    <defs></defs>
    <g id="Website" stroke="none" stroke-width="1" fill="none" fill-rule="evenodd" opacity="0.05">
        <g id="Desktop-/-First-Page" transform="translate(-315.000000, -201.000000)">
            <g id="Icons" transform="translate(-630.000000, 46.000000)">
                <g transform="translate(761.000000, 0.000000)" id="Croissant">
                    <g transform="translate(244.604746, 201.993736) rotate(-17.000000) translate(-244.604746, -201.993736) translate(179.604746, 145.993736)">
                        <g id="Group" transform="translate(-0.000000, 5.311603)">
                            <g id="Triangle-1-Copy-2-+-Rectangle-2-Copy-3" transform="translate(28.452498, 30.500000) scale(-1, 1) translate(-28.452498, -30.500000) translate(0.952498, 0.000000)" stroke="#FC5314" stroke-width="3" fill="#FFFFFF">
                                <path d="M30.4310664,29.6746788 C33.2738753,23.9873119 37.8791921,23.9797351 40.7257883,29.6746788 L48.3100669,44.8479018 C51.1528759,50.5352686 48.2960962,55.1457904 41.9465433,55.1457904 L29.2103114,55.1457904 C22.8530254,55.1457904 20.0001915,50.5428455 22.8467878,44.8479018 L30.4310664,29.6746788 Z" id="Triangle-1-Copy-2" transform="translate(35.577025, 40.276051) scale(-1, 1) rotate(-150.000000) translate(-35.577025, -40.276051) "></path>
                                <rect id="Rectangle-2-Copy-3" transform="translate(25.185389, 24.763856) rotate(-45.000000) translate(-25.185389, -24.763856) " x="8.08373648" y="7.65694317" width="34.2033054" height="34.2138263" rx="12.3296507"></rect>
                            </g>
                            <g id="Triangle-1-Copy-2-+-Rectangle-2-Copy-3-Copy" transform="translate(41.514932, 0.000000)" stroke="#FC5314" stroke-width="3" fill="#FFFFFF">
                                <path d="M30.4297957,29.6746788 C33.2726047,23.9873119 37.8779215,23.9797351 40.7245177,29.6746788 L48.3087963,44.8479018 C51.1516052,50.5352687 48.2948256,55.1457904 41.9452727,55.1457904 L29.2090407,55.1457904 C22.8517547,55.1457904 19.9989209,50.5428455 22.8455172,44.8479018 L30.4297957,29.6746788 Z" id="Triangle-1-Copy-2" transform="translate(35.575754, 40.276051) scale(-1, 1) rotate(-150.000000) translate(-35.575754, -40.276051) "></path>
                                <rect id="Rectangle-2-Copy-3" transform="translate(25.185389, 24.763856) rotate(-45.000000) translate(-25.185389, -24.763856) " x="8.08373648" y="7.65694317" width="34.2033054" height="34.2138263" rx="12.3296507"></rect>
                            </g>
                            <rect id="Rectangle-2" stroke="#FC5314" stroke-width="3" fill="#FFFFFF" x="29.3000188" y="2.33276089" width="38.8673925" height="38.8793481" rx="12.3296507"></rect>
                            <ellipse id="Oval-14" fill="#709AE2" cx="40.1828887" cy="10.8862175" rx="2.33204355" ry="2.33276089"></ellipse>
                            <ellipse id="Oval-14-Copy-2" fill="#709AE2" cx="46.4016715" cy="13.9965653" rx="1.5546957" ry="1.55517392"></ellipse>
                        </g>
                        <g id="Group-Copy" transform="translate(74.149554, 55.910435) rotate(-225.000000) translate(-74.149554, -55.910435) translate(26.149554, 25.410435)">
                            <g id="Triangle-1-Copy-2-+-Rectangle-2-Copy-3" transform="translate(27.875683, 30.500000) scale(-1, 1) translate(-27.875683, -30.500000) translate(0.375683, 0.000000)" stroke="#FC5314" stroke-width="3" fill="#FFFFFF">
                                <path d="M30.4297957,29.6746788 C33.2726047,23.9873119 37.8779215,23.9797351 40.7245177,29.6746788 L48.3087963,44.8479018 C51.1516052,50.5352687 48.2948256,55.1457904 41.9452727,55.1457904 L29.2090407,55.1457904 C22.8517547,55.1457904 19.9989209,50.5428455 22.8455172,44.8479018 L30.4297957,29.6746788 Z" id="Triangle-1-Copy-2" transform="translate(35.575754, 40.276051) scale(-1, 1) rotate(-150.000000) translate(-35.575754, -40.276051) "></path>
                                <rect id="Rectangle-2-Copy-3" transform="translate(25.185389, 24.763856) rotate(-45.000000) translate(-25.185389, -24.763856) " x="8.08373648" y="7.65694317" width="34.2033054" height="34.2138263" rx="12.3296507"></rect>
                            </g>
                            <g id="Triangle-1-Copy-2-+-Rectangle-2-Copy-3-Copy" transform="translate(40.938118, 0.000000)" stroke="#FC5314" stroke-width="3" fill="#FFFFFF">
                                <path d="M30.4297957,29.6746788 C33.2726047,23.9873119 37.8779215,23.9797351 40.7245177,29.6746788 L48.3087963,44.8479018 C51.1516052,50.5352687 48.2948256,55.1457904 41.9452727,55.1457904 L29.2090407,55.1457904 C22.8517547,55.1457904 19.9989209,50.5428455 22.8455172,44.8479018 L30.4297957,29.6746788 Z" id="Triangle-1-Copy-2" transform="translate(35.575754, 40.276051) scale(-1, 1) rotate(-150.000000) translate(-35.575754, -40.276051) "></path>
                                <rect id="Rectangle-2-Copy-3" transform="translate(25.185389, 24.763856) rotate(-45.000000) translate(-25.185389, -24.763856) " x="8.08373648" y="7.65694317" width="34.2033054" height="34.2138263" rx="12.3296507"></rect>
                            </g>
                            <rect id="Rectangle-2" stroke="#FC5314" stroke-width="3" fill="#FFFFFF" x="28.7232041" y="2.33276089" width="38.8673925" height="38.8793481" rx="12.3296507"></rect>
                            <ellipse id="Oval-14" fill="#709AE2" cx="39.606074" cy="10.8862175" rx="2.33204355" ry="2.33276089"></ellipse>
                            <ellipse id="Oval-14-Copy-2" fill="#709AE2" cx="45.8248568" cy="13.9965653" rx="1.5546957" ry="1.55517392"></ellipse>
                        </g>
                    </g>
                </g>
            </g>
        </g>
    </g>
</svg>