<?xml version="1.0" encoding="UTF-8"?>
<svg width="61px" height="108px" viewBox="0 0 61 108" version="1.1" xmlns="http://www.w3.org/2000/svg" xmlns:xlink="http://www.w3.org/1999/xlink">
    <!-- Generator: sketchtool 42 (36781) - http://www.bohemiancoding.com/sketch -->
    <title>43CDE666-B42F-4BE3-A859-B65200E6211D</title>
    <desc>Created with sketchtool.</desc>
    <defs></defs>
    <g id="Website" stroke="none" stroke-width="1" fill="none" fill-rule="evenodd" opacity="0.05">
        <g id="Desktop-/-First-Page" transform="translate(-642.000000, -316.000000)">
            <g id="Icons" transform="translate(-630.000000, 46.000000)">
                <g transform="translate(761.000000, 0.000000)" id="Instant-noodles-">
                    <g transform="translate(542.291753, 324.010626) rotate(-11.000000) translate(-542.291753, -324.010626) translate(513.791753, 271.510626)">
                        <path d="M1.92990764,45.6029001 L0.346163376,45.6029001 L6.85750286,91.6552361 C6.85750286,91.6552361 5.89652642,104.293851 27.9832917,104.293851 C50.0700569,104.293851 49.1335199,91.6552357 49.1335199,91.6552357 L55.6520394,45.6029001 L54.0366762,45.6029001 C51.8263612,49.7935729 45.5050702,56.8374272 27.9832916,56.8374272 C10.4615148,56.8374272 4.14022328,49.7935735 1.92990764,45.6029001 Z" id="Path-46" stroke="#FC5314" stroke-width="3" fill="#FFFFFF"></path>
                        <ellipse id="Oval-32" stroke="#FC5314" stroke-width="3" fill="#FFFFFF" cx="28.3184349" cy="42.7250041" rx="27.9722715" ry="14.2535167"></ellipse>
                        <path d="M2.64596402,60.1874706 C1.98389782,59.6919853 1.64509946,58.6415252 1.88249973,57.8632871 L2.03833724,57.3524255 C2.27875375,56.5642997 2.99127311,56.3526579 3.63768401,56.8862231 L22.6780385,72.6026513 C23.3209168,73.1333006 23.4269612,74.0947953 22.912755,74.7529493 L23.5452609,73.9433786 C23.032013,74.600306 22.0713949,74.725315 21.4171664,74.2356954 L2.64596402,60.1874706 Z" id="Rectangle-21-Copy" fill="#FC5314"></path>
                        <path d="M27.0398624,53.4368527 C41.9735661,53.4368527 44.8430121,35.129454 44.8430121,27.0259246 C44.8430121,18.9223953 41.9735661,29.12203 27.0398624,29.12203 C12.1061588,29.12203 -5.68434189e-14,35.6912385 -5.68434189e-14,43.7947678 C-5.68434189e-14,51.8982971 12.1061588,53.4368527 27.0398624,53.4368527 Z" id="Oval-33" stroke="#FC5314" stroke-width="3" fill="#FFFFFF"></path>
                        <ellipse id="Oval-17-Copy-8" fill="#709AE2" cx="11.2859575" cy="23.5015219" rx="1.53082083" ry="1.37411354"></ellipse>
                        <ellipse id="Oval-17-Copy-11" fill="#709AE2" cx="22.9921215" cy="94.3092286" rx="1.53082083" ry="1.37411354"></ellipse>
                        <ellipse id="Oval-17-Copy-12" fill="#709AE2" cx="40.5513675" cy="79.2625909" rx="1.53082083" ry="1.37411354"></ellipse>
                        <ellipse id="Oval-17-Copy-10" fill="#709AE2" cx="39.5758538" cy="1.37411354" rx="1.53082083" ry="1.37411354"></ellipse>
                        <path d="M22.525743,7.965867 C22.525743,7.965867 23.2770559,13.7018859 17.5853933,13.7018858 C11.8937308,13.7018858 11.706164,18.9792694 11.706164,18.9792694" id="Path-30-Copy" stroke="#FC5314" stroke-width="2.46268657" stroke-linecap="round"></path>
                        <path d="M36.2626788,81.3229363 C36.2626788,81.3229363 34.0453254,86.6661308 29.116201,83.8202995 C24.1870767,80.9744682 21.3859473,85.4510331 21.3859473,85.4510331" id="Path-30-Copy-3" stroke="#FC5314" stroke-width="2.46268657" stroke-linecap="round"></path>
                        <path d="M41.1402471,86.6335143 C41.1402471,86.6335143 38.9228937,91.9767088 33.9937694,89.1308775 C29.0646451,86.2850462 26.2635156,90.7616111 26.2635156,90.7616111" id="Path-30-Copy-4" stroke="#FC5314" stroke-width="2.46268657" stroke-linecap="round"></path>
                        <path d="M39.1094754,5.310578 C39.1094754,5.310578 39.8607882,11.0465969 34.1691257,11.0465968 C28.4774631,11.0465968 28.2898963,16.3239804 28.2898963,16.3239804" id="Path-30-Copy-2" stroke="#FC5314" stroke-width="2.46268657" stroke-linecap="round"></path>
                        <path d="M4.37713417,68.5508754 C3.67462177,68.116325 3.08747728,67.0878064 3.06577978,66.2562797 L3.05294771,65.7645083 C3.03121908,64.9317886 3.57238121,64.6368136 4.25155811,65.0987872 L19.7864268,75.6655457 C20.4701297,76.1305978 20.687254,77.0915171 20.2696493,77.8148295 L20.7833293,76.9251097 C20.3665028,77.6470743 19.4655239,77.8840435 18.756587,77.4455191 L4.37713417,68.5508754 Z" id="Rectangle-21" fill="#FC5314"></path>
                    </g>
                </g>
            </g>
        </g>
    </g>
</svg>