<?xml version="1.0" encoding="UTF-8"?>
<svg width="108px" height="118px" viewBox="0 0 108 118" version="1.1" xmlns="http://www.w3.org/2000/svg" xmlns:xlink="http://www.w3.org/1999/xlink">
    <!-- Generator: sketchtool 42 (36781) - http://www.bohemiancoding.com/sketch -->
    <title>828E2991-7EB6-4158-AEB0-81A95A6B2632</title>
    <desc>Created with sketchtool.</desc>
    <defs></defs>
    <g id="Website" stroke="none" stroke-width="1" fill="none" fill-rule="evenodd" opacity="0.05">
        <g id="Desktop-/-First-Page" transform="translate(-174.000000, -325.000000)" stroke-width="3">
            <g id="Icons" transform="translate(-630.000000, 46.000000)">
                <g transform="translate(761.000000, 0.000000)" id="Chocolate">
                    <g transform="translate(96.324725, 340.178994) rotate(40.000000) translate(-96.324725, -340.178994) translate(20.324725, 282.178994)">
                        <g id="Rectangle-23-+-Group" transform="translate(-0.000000, 0.000000)">
                            <rect id="Rectangle-23" stroke="#FC5314" fill="#FFFFFF" transform="translate(50.192546, 50.267757) rotate(-45.000000) translate(-50.192546, -50.267757) " x="15.010855" y="15.0333479" width="70.3633829" height="70.4688184" rx="18"></rect>
                            <g id="Group" transform="translate(50.197568, 50.514462) rotate(-45.000000) translate(-50.197568, -50.514462) translate(30.197568, 32.014462)" stroke-linecap="round" stroke="#709AE2">
                                <polyline id="Path-52" points="0.79099895 12.1006952 13.4646571 12.1006954 13.4646572 0.827051216"></polyline>
                                <polyline id="Path-52-Copy-3" points="0.938178439 36.6424187 13.6118366 36.6424188 13.6118367 25.3687746"></polyline>
                                <polyline id="Path-52-Copy" points="27.2071747 12.2132283 39.8808329 12.2132284 39.8808329 0.939584246"></polyline>
                                <polyline id="Path-52-Copy-2" points="27.2071747 36.6424187 39.8808329 36.6424188 39.8808329 25.3687746"></polyline>
                            </g>
                        </g>
                        <g id="Rectangle-23-Copy-+-Group-Copy-4" transform="translate(94.497621, 59.019055) rotate(-315.000000) translate(-94.497621, -59.019055) translate(51.497621, 21.519055)">
                            <path d="M25.9544392,0.0148934136 L6.27141132,19.6979213 C-0.765503053,26.7348357 -0.762725197,38.1282927 6.26625888,45.1572768 L30.6410352,69.5320531 C37.6763965,76.5674144 49.068561,76.5587304 56.1003907,69.5269007 L80.390308,45.2369834 C87.4272224,38.200069 87.4244445,26.806612 80.3954604,19.7776279 L61.2073373,0.589504756 L56.6004479,5.19639417 C49.5686182,12.2282239 38.1764537,12.2369079 31.1410924,5.20154661 L25.9544392,0.0148934136 Z" id="Rectangle-23-Copy" stroke="#FC5314" fill="#FFFFFF"></path>
                            <g id="Group-Copy-4" transform="translate(44.235002, 32.675042) rotate(-45.000000) translate(-44.235002, -32.675042) translate(24.235002, 14.175042)" stroke-linecap="round" stroke="#709AE2">
                                <polyline id="Path-52" points="0.79099895 12.1006952 13.4646571 12.1006954 13.4646572 0.827051216"></polyline>
                                <polyline id="Path-52-Copy-3" points="0.938178439 36.6424187 13.6118366 36.6424188 13.6118367 25.3687746"></polyline>
                                <polyline id="Path-52-Copy" points="27.2071747 12.2132283 39.8808329 12.2132284 39.8808329 7.86620758"></polyline>
                                <polyline id="Path-52-Copy-2" points="27.2071747 36.6424187 39.8808329 36.6424188 39.8808329 25.3687746"></polyline>
                            </g>
                        </g>
                    </g>
                </g>
            </g>
        </g>
    </g>
</svg>