<?xml version="1.0" encoding="UTF-8"?>
<svg width="89px" height="89px" viewBox="0 0 89 89" version="1.1" xmlns="http://www.w3.org/2000/svg" xmlns:xlink="http://www.w3.org/1999/xlink">
    <!-- Generator: sketchtool 42 (36781) - http://www.bohemiancoding.com/sketch -->
    <title>EC5457A0-4A3E-4B29-8D21-5C4381228740</title>
    <desc>Created with sketchtool.</desc>
    <defs></defs>
    <g id="Website" stroke="none" stroke-width="1" fill="none" fill-rule="evenodd" opacity="0.05">
        <g id="Desktop-/-First-Page" transform="translate(-474.000000, -336.000000)">
            <g id="Icons" transform="translate(-630.000000, 46.000000)">
                <g transform="translate(761.000000, 0.000000)" id="Donut">
                    <g transform="translate(387.159097, 334.362480) rotate(-155.000000) translate(-387.159097, -334.362480) translate(344.659097, 291.862480)">
                        <path d="M42.2180297,84.5625821 C18.9016558,84.5625821 1.20792265e-13,65.6326033 1.20792265e-13,42.2812911 C1.20792265e-13,18.9299788 18.9016558,1.3500312e-13 42.2180297,1.3500312e-13 C65.5344037,1.3500312e-13 84.4360595,18.9299788 84.4360595,42.2812911 C84.4360595,65.6326033 65.5344037,84.5625821 42.2180297,84.5625821 Z M42.60183,56.1188045 C50.0206763,56.1188045 56.0348395,50.0956294 56.0348395,42.6656664 C56.0348395,35.2357034 50.0206763,29.2125284 42.60183,29.2125284 C35.1829837,29.2125284 29.1688206,35.2357034 29.1688206,42.6656664 C29.1688206,50.0956294 35.1829837,56.1188045 42.60183,56.1188045 Z" id="Oval-30" stroke="#FC5314" stroke-width="3" fill="#FFFFFF"></path>
                        <path d="M14.0726766,27.5310561 C14.0726766,27.5310561 17.4088779,24.4291905 20.8411008,24.4291904" id="Path-35" stroke="#709AE2" stroke-width="3" stroke-linecap="round"></path>
                        <path d="M53.1480065,19.8298525 C53.1480065,19.8298525 48.5984872,20.0615505 45.9692519,17.8553603" id="Path-35-Copy" stroke="#709AE2" stroke-width="3" stroke-linecap="round"></path>
                        <path d="M69.4230381,24.4339246 C69.4230381,24.4339246 71.1232914,28.6601461 69.8932929,31.8644022" id="Path-35-Copy-2" stroke="#709AE2" stroke-width="3" stroke-linecap="round"></path>
                        <ellipse id="Oval-32" fill="#709AE2" cx="30.4907993" cy="10.8052188" rx="2.3454461" ry="2.34896061"></ellipse>
                        <path d="M1.01785247e-12,43.1595136 C1.01785247e-12,43.1595136 6.15642375,39.4421407 9.23463562,39.4626227 C12.2053028,39.4823891 16.5046109,43.0815498 20.3498426,43.9382464 C25.1020467,44.9970114 29.160707,43.353545 29.160707,43.353545" id="Path-38" stroke="#FC5314" stroke-width="3"></path>
                        <path d="M84.5132349,42.2199294 C84.5132349,42.2199294 78.3568111,38.5025564 75.2785992,38.5230384 C72.307932,38.5428048 68.008624,42.1419655 64.1633922,42.9986621 C59.4111882,44.0574272 55.3525279,42.4139608 55.3525279,42.4139608" id="Path-38-Copy" stroke="#FC5314" stroke-width="3"></path>
                    </g>
                </g>
            </g>
        </g>
    </g>
</svg>