<?xml version="1.0" encoding="UTF-8"?>
<svg width="84px" height="80px" viewBox="0 0 84 80" version="1.1" xmlns="http://www.w3.org/2000/svg" xmlns:xlink="http://www.w3.org/1999/xlink">
    <!-- Generator: sketchtool 42 (36781) - http://www.bohemiancoding.com/sketch -->
    <title>0325B3D8-C9E9-4608-8219-F021FB604B75</title>
    <desc>Created with sketchtool.</desc>
    <defs></defs>
    <g id="Website" stroke="none" stroke-width="1" fill="none" fill-rule="evenodd" opacity="0.05">
        <g id="Desktop-/-First-Page" transform="translate(-323.000000, -67.000000)">
            <g id="Icons" transform="translate(-630.000000, 46.000000)">
                <g transform="translate(761.000000, 0.000000)" id="Dumpling">
                    <g transform="translate(230.557956, 65.903093) rotate(-18.000000) translate(-230.557956, -65.903093) translate(192.057956, 27.403093)">
                        <g id="Group" transform="translate(-0.000000, 11.275011)" stroke-width="3">
                            <path d="M18.169952,6.08698248 C8.2425823,8.56794086 -5.40012479e-13,19.0779287 -5.40012479e-13,28.6845756 C-5.40012479e-13,39.6660041 10.770536,45.3085985 22.5162825,45.3085985 C34.2620291,45.3085985 45.0325651,39.6660041 45.0325651,28.6845756 C45.0325651,19.3480048 37.2469231,9.15817111 27.6957507,6.3150666 L25.1040142,1.96339568 C23.8662692,-0.114847511 21.8624593,-0.112944359 20.6258478,1.96339568 L18.169952,6.08698248 Z" id="Oval-43-Copy" stroke="#FC5314" fill="#FFFFFF"></path>
                            <path d="M19.0911748,11.275011 C19.0911748,11.275011 17.8977102,13.6957634 15.010855,13.1561723" id="Path-79-Copy-3" stroke="#709AE2" stroke-linecap="round"></path>
                            <path d="M23.968687,11.1923365 C23.968687,11.1923365 24.1983102,14.6900394 20.6009684,15.9577691" id="Path-79-Copy-4" stroke="#709AE2" stroke-linecap="round"></path>
                            <path d="M28.193855,12.1199065 C28.193855,12.1199065 29.6535224,13.6986306 28.4280366,15.6916295" id="Path-79-Copy-5" stroke="#709AE2" stroke-linecap="round"></path>
                        </g>
                        <path d="M50.1269148,37.1500487 C40.1995451,39.631007 31.9569629,50.1409949 31.9569629,59.7476417 C31.9569629,70.7290703 42.7274988,76.3716646 54.4732454,76.3716646 C66.2189919,76.3716646 76.9895279,70.7290703 76.9895279,59.7476417 C76.9895279,50.4110709 69.203886,40.2212373 59.6527135,37.3781328 L57.060977,33.0264619 C55.8232321,30.9482187 53.8194221,30.9501218 52.5828106,33.0264619 L50.1269148,37.1500487 Z" id="Oval-43" stroke="#FC5314" stroke-width="3" fill="#FFFFFF"></path>
                        <path d="M50.3678431,42.7311225 C50.3678431,42.7311225 49.1743785,45.1518749 46.2875233,44.6122838" id="Path-79" stroke="#709AE2" stroke-width="3" stroke-linecap="round"></path>
                        <path d="M55.3984098,41.914089 C55.3984098,41.914089 55.6280331,45.4117919 52.0306912,46.6795217" id="Path-79-Copy" stroke="#709AE2" stroke-width="3" stroke-linecap="round"></path>
                        <path d="M60.0556346,42.6928213 C60.0556346,42.6928213 61.515302,44.2715454 60.2898161,46.2645443" id="Path-79-Copy-2" stroke="#709AE2" stroke-width="3" stroke-linecap="round"></path>
                        <ellipse id="Oval-17-Copy-10" fill="#709AE2" cx="66.2651331" cy="6.07203477" rx="1.53082083" ry="1.37411354"></ellipse>
                        <ellipse id="Oval-17-Copy-13" fill="#709AE2" cx="47.2361137" cy="15.4678772" rx="1.53082083" ry="1.37411354"></ellipse>
                        <path d="M66.1721069,10.3354267 C66.1721069,10.3354267 66.9234198,16.0714456 61.2317572,16.0714455 C55.5400947,16.0714455 55.3525279,21.3488291 55.3525279,21.3488291" id="Path-30-Copy-2" stroke="#FC5314" stroke-width="2.46268657" stroke-linecap="round"></path>
                        <path d="M58.4012288,1.27951352e-13 C58.4012288,1.27951352e-13 59.1525417,5.73601889 53.4608791,5.73601882 C47.7692166,5.73601876 47.5816498,11.0134024 47.5816498,11.0134024" id="Path-30-Copy-5" stroke="#FC5314" stroke-width="2.46268657" stroke-linecap="round"></path>
                    </g>
                </g>
            </g>
        </g>
    </g>
</svg>