<?xml version="1.0" encoding="UTF-8"?>
<svg width="83px" height="86px" viewBox="0 0 83 86" version="1.1" xmlns="http://www.w3.org/2000/svg" xmlns:xlink="http://www.w3.org/1999/xlink">
    <!-- Generator: sketchtool 42 (36781) - http://www.bohemiancoding.com/sketch -->
    <title>8ADB9F14-C0AB-4A3C-A252-710B9BD72CAD</title>
    <desc>Created with sketchtool.</desc>
    <defs></defs>
    <g id="Website" stroke="none" stroke-width="1" fill="none" fill-rule="evenodd" opacity="0.05">
        <g id="Desktop-/-First-Page" transform="translate(-174.000000, -66.000000)" stroke-width="3">
            <g id="Icons" transform="translate(-630.000000, 46.000000)">
                <g transform="translate(761.000000, 0.000000)" id="Hamburger">
                    <g transform="translate(84.485288, 63.011869) rotate(-12.000000) translate(-84.485288, -63.011869) translate(47.485288, 22.511869)">
                        <g id="Group" transform="translate(-0.000000, -0.000000)">
                            <path d="M36.5889591,80.8042451 C56.7904924,80.8042451 73.1670709,73.7645251 73.1670709,65.0805904 C73.1670709,56.3966557 74.84133,36.7780119 36.5889591,36.7780119 C-1.66341178,36.7780119 0.0108473281,56.3966557 0.0108473281,65.0805904 C0.0108473281,73.7645251 16.3874258,80.8042451 36.5889591,80.8042451 Z" id="Oval-1-Copy-11" stroke="#FC5314" fill="#FFFFFF" transform="translate(36.588959, 58.791129) scale(1, -1) translate(-36.588959, -58.791129) "></path>
                            <path d="M65.9082132,56.5108994 C69.8158074,54.2269201 72.1017724,51.4631984 72.1017724,48.4857136 C72.1017724,40.633208 56.2021443,36.7780119 36.5889591,36.7780119 C16.9757739,36.7780119 1.07614586,40.633208 1.07614586,48.4857136 C1.07614586,56.3382191 16.9757739,62.7039327 36.5889591,62.7039327 C42.8347835,62.7039327 48.7040139,62.058382 53.8031105,60.9248415 L55.9618393,64.7400322 C57.4203043,67.3176244 59.7911389,67.3218015 61.2519674,64.7400322 L65.9082132,56.5108994 Z" id="Oval-1-Copy-13" stroke="#FC5314" fill="#FFFFFF"></path>
                            <path d="M36.5889591,55.0327915 C56.2021443,55.0327915 72.1017724,48.7050051 72.1017724,40.8992849 C72.1017724,33.0935647 56.2021443,29.2613379 36.5889591,29.2613379 C16.9757739,29.2613379 1.07614586,33.0935647 1.07614586,40.8992849 C1.07614586,48.7050051 16.9757739,55.0327915 36.5889591,55.0327915 Z" id="Oval-1-Copy-12" stroke="#FC5314" fill="#FFFFFF"></path>
                            <path d="M36.5889591,49.6637387 C56.7677523,49.6637387 73.1258962,42.6240187 73.1258962,33.940084 C73.1258962,25.2561493 76.1245471,3.233759e-15 36.5889591,1.04314806e-16 C-2.94662887,-3.12944419e-15 0.0520220294,25.2561493 0.0520220294,33.940084 C0.0520220294,42.6240187 16.410166,49.6637387 36.5889591,49.6637387 Z" id="Oval-1-Copy-8" stroke="#FC5314" fill="#FFFFFF"></path>
                            <path d="M20.0432166,23.1764114 L24.7513547,19.5970428" id="Line" stroke="#709AE2" stroke-linecap="round"></path>
                            <path d="M54.8834387,23.8922851 L49.5027094,24.9660957" id="Line-Copy-4" stroke="#709AE2" stroke-linecap="round"></path>
                            <path d="M30.132084,23.8922851 L34.4366674,27.1137168" id="Line-Copy-2" stroke="#709AE2" stroke-linecap="round"></path>
                            <path d="M38.7412508,16.3756111 L39.9811442,17.6040231" id="Line-Copy-3" stroke="#709AE2" stroke-linecap="round"></path>
                        </g>
                    </g>
                </g>
            </g>
        </g>
    </g>
</svg>