<?xml version="1.0" encoding="UTF-8"?>
<svg width="130px" height="77px" viewBox="0 0 130 77" version="1.1" xmlns="http://www.w3.org/2000/svg" xmlns:xlink="http://www.w3.org/1999/xlink">
    <!-- Generator: sketchtool 42 (36781) - http://www.bohemiancoding.com/sketch -->
    <title>9BF5B9BC-C4C5-4B92-BF25-BF977FF00FF5</title>
    <desc>Created with sketchtool.</desc>
    <defs></defs>
    <g id="Website" stroke="none" stroke-width="1" fill="none" fill-rule="evenodd" opacity="0.05">
        <g id="Desktop-/-First-Page" transform="translate(-608.000000, -202.000000)" stroke-width="3">
            <g id="Icons" transform="translate(-630.000000, 46.000000)">
                <g transform="translate(761.000000, 0.000000)" id="Hot-dog">
                    <g transform="translate(544.315660, 195.376031) rotate(108.000000) translate(-544.315660, -195.376031) translate(519.815660, 128.376031)">
                        <rect id="Rectangle-28" stroke="#FC5314" fill="#FFFFFF" x="1.95399252e-12" y="4.69792123" width="48.7852788" height="124.02512" rx="24.3926394"></rect>
                        <g id="Rectangle-8-+-Path-22-+-Path-22-Copy-+-Path-22-Copy-2" transform="translate(23.203077, 0.251761)">
                            <rect id="Rectangle-8" stroke="#FC5314" fill="#FFFFFF" x="-3.28626015e-13" y="0.655848409" width="19.7396768" height="131.440928" rx="9.86983838"></rect>
                            <g id="Path-22-+-Path-22-Copy-+-Path-22-Copy-2" transform="translate(4.690892, 30.169027)" stroke="#709AE2" stroke-linecap="round">
                                <path d="M5.86360305,6.07491971 L12.7903561,0.483564387" id="Path-22"></path>
                                <path d="M0.73730073,40.7877976 L7.66405373,35.1964423" id="Path-22-Copy"></path>
                                <path d="M5.84613621,71.5686204 L12.3499879,66.318636" id="Path-22-Copy-2"></path>
                            </g>
                        </g>
                        <path d="M1.5063506e-12,22.9937871 C1.5063506e-12,14.4460136 6.92872734,7.51667397 15.4799442,7.51667397 L15.4799442,7.51667397 C24.0292814,7.51667397 30.9598885,14.4477053 30.9598885,22.9937871 L30.9598885,110.427176 C30.9598885,118.974949 24.0311611,125.904289 15.4799442,125.904289 L15.4799442,125.904289 C6.93060711,125.904289 1.5063506e-12,118.973258 1.5063506e-12,110.427176 L1.5063506e-12,22.9937871 Z" id="Rectangle-28" stroke="#FC5314" fill="#FFFFFF"></path>
                    </g>
                </g>
            </g>
        </g>
    </g>
</svg>