<?xml version="1.0" encoding="UTF-8"?>
<svg width="63px" height="73px" viewBox="0 0 63 73" version="1.1" xmlns="http://www.w3.org/2000/svg" xmlns:xlink="http://www.w3.org/1999/xlink">
    <!-- Generator: sketchtool 42 (36781) - http://www.bohemiancoding.com/sketch -->
    <title>66A88C76-D035-416E-8911-935326FF7443</title>
    <desc>Created with sketchtool.</desc>
    <defs></defs>
    <g id="Website" stroke="none" stroke-width="1" fill="none" fill-rule="evenodd" opacity="0.05">
        <g id="Desktop-/-First-Page" transform="translate(-776.000000, -81.000000)">
            <g id="Icons" transform="translate(-630.000000, 46.000000)">
                <g transform="translate(761.000000, 0.000000)" id="Pizza">
                    <g transform="translate(686.072807, 67.135913) rotate(-150.000000) translate(-686.072807, -67.135913) translate(653.072807, 32.635913)">
                        <path d="M2.86228724,20.1293242 C-0.793518199,14.6044145 0.893272051,7.44533605 6.95688412,4.773703 C6.95688412,4.773703 10.5290356,-1.40044439e-13 33.1492478,-1.42108547e-13 C55.76946,-1.44172656e-13 59.3609772,4.78110872 59.3609772,4.78110872 C65.2674691,7.73278433 67.0900412,14.6073913 63.4362055,20.1293242 L39.7686677,55.8973682 C36.1128622,61.4222779 30.1836608,61.419301 26.5298251,55.8973682 L2.86228724,20.1293242 Z M10.2785038,26.2188248 L26.5301152,50.7794005 C30.185133,56.3031198 36.1100325,56.3025115 39.7646477,50.7794005 L56.0162592,26.2188248 C59.6712769,20.6951055 57.7908191,13.9425236 51.8170382,11.1351522 C51.8170382,11.1351522 51.2196733,8.12856469 33.1473826,8.12856469 C15.075092,8.12856469 14.4949463,11.1294051 14.4949463,11.1294051 C8.34197212,13.6029989 6.62388852,20.6957138 10.2785038,26.2188248 Z" id="Triangle-7" stroke="#FC5314" stroke-width="3" fill="#FFFFFF"></path>
                        <path d="M7.1479569,28.64922 C3.89215452,22.8800869 5.7274228,15.2228667 11.648437,12.2940201 C11.648437,12.2940201 13.5380398,7.99392311 32.9900428,7.99392311 C52.4420457,7.99392311 54.3492441,12.3014152 54.3492441,12.3014152 C60.0808739,15.5609254 62.0895408,22.8772301 58.8321262,28.64922 L38.8851932,63.994274 C35.6293909,69.7634071 30.3523045,69.766264 27.0948898,63.994274 L7.1479569,28.64922 Z" id="Triangle-7-Copy-2" stroke="#FC5314" stroke-width="3" fill="#FFFFFF"></path>
                        <ellipse id="Oval-47" fill="#709AE2" cx="24.4243899" cy="21.9832885" rx="3.64675886" ry="3.67866154"></ellipse>
                        <ellipse id="Oval-47-Copy" fill="#709AE2" cx="42.5162311" cy="25.2308198" rx="2.22879289" ry="2.24829087"></ellipse>
                        <ellipse id="Oval-47-Copy-2" fill="#709AE2" cx="32.8482325" cy="41.4684761" rx="4.05397861" ry="4.08944373"></ellipse>
                    </g>
                </g>
            </g>
        </g>
    </g>
</svg>