<?xml version="1.0" encoding="UTF-8"?>
<svg width="115px" height="71px" viewBox="0 0 115 71" version="1.1" xmlns="http://www.w3.org/2000/svg" xmlns:xlink="http://www.w3.org/1999/xlink">
    <!-- Generator: sketchtool 42 (36781) - http://www.bohemiancoding.com/sketch -->
    <title>8816ED1E-D8D9-449A-9687-87A15DF18DDE</title>
    <desc>Created with sketchtool.</desc>
    <defs></defs>
    <g id="Website" stroke="none" stroke-width="1" fill="none" fill-rule="evenodd" opacity="0.05">
        <g id="Desktop-/-First-Page" transform="translate(-619.000000, -76.000000)" stroke-width="3">
            <g id="Icons" transform="translate(-630.000000, 46.000000)">
                <g transform="translate(761.000000, 0.000000)" id="Sandwich">
                    <g transform="translate(543.783075, 66.226284) rotate(-19.000000) translate(-543.783075, -66.226284) translate(480.783075, 18.726284)">
                        <g id="Group-Copy-3" transform="translate(61.437646, 54.216438) rotate(-345.000000) translate(-61.437646, -54.216438) translate(5.437646, 27.216438)" stroke="#FC5314" fill="#FFFFFF">
                            <path d="M67.5195723,2.98787301 L109.764387,30.3580537 C114.235408,34.3416586 110.605594,39.6266516 105.162826,41.9420947 C105.162826,41.9420947 74.8758291,55.5280769 48.1120454,52.7502111 C21.3482616,49.9723453 9.2229949,41.9420947 9.2229949,41.9420947 C3.86273338,38.5482435 -1.95146431,34.3421101 2.52006377,30.3580537 L51.3285715,2.98787301 C55.7995929,-0.99573195 63.0480442,-0.996183383 67.5195723,2.98787301 Z" id="Triangle-5"></path>
                        </g>
                        <path d="M9.70143304,46.5491792 C8.66942672,46.9456631 8.5974499,47.7411299 9.52934947,48.3087242 C9.52934947,48.3087242 34.034167,63.8041662 56.3201607,69.4724065 C78.6061544,75.1406468 109.080965,77.8425974 110.90676,75.9979417 C112.732556,74.153286 72.007727,22.6118787 72.007727,22.6118787 L9.70143304,46.5491792 Z" id="Path-45" stroke="#FC5314" fill="#FFFFFF"></path>
                        <g id="Group" transform="translate(65.729536, 38.829257) rotate(-345.000000) translate(-65.729536, -38.829257) translate(10.729536, 13.829257)">
                            <path d="M62.6087945,2.98787301 L106.329282,41.9420933 C110.800304,45.9256983 109.579175,49.1550481 103.619716,49.1550481 L5.40687225,49.1550481 C-0.560601405,49.1550481 -1.77422232,45.9261497 2.69730576,41.9420933 L46.4177937,2.98787301 C50.8888151,-0.99573195 58.1372664,-0.996183383 62.6087945,2.98787301 Z" id="Triangle-5" stroke="#FC5314" fill="#FFFFFF"></path>
                            <path d="M39.7772999,31.0354382 L30.4468221,49.2795313" id="Path-41" stroke="#FC5314" stroke-linecap="round"></path>
                            <path d="M68.9714994,31.0354382 L78.5724443,49.2795313" id="Path-41-Copy" stroke="#FC5314" stroke-linecap="round"></path>
                            <path d="M54.485975,23.9838023 L54.485975,46.8406589" id="Path-41-Copy-2" stroke="#709AE2" stroke-linecap="round"></path>
                        </g>
                    </g>
                </g>
            </g>
        </g>
    </g>
</svg>