<?xml version="1.0" encoding="UTF-8"?>
<svg width="73px" height="106px" viewBox="0 0 73 106" version="1.1" xmlns="http://www.w3.org/2000/svg" xmlns:xlink="http://www.w3.org/1999/xlink">
    <!-- Generator: sketchtool 42 (36781) - http://www.bohemiancoding.com/sketch -->
    <title>6148457C-7754-4336-8619-29C38AFA9CED</title>
    <desc>Created with sketchtool.</desc>
    <defs></defs>
    <g id="Website" stroke="none" stroke-width="1" fill="none" fill-rule="evenodd" opacity="0.05">
        <g id="Desktop-/-First-Page" transform="translate(-784.000000, -187.000000)" stroke="#FC5314" stroke-width="3" fill="#FFFFFF">
            <g id="Icons" transform="translate(-630.000000, 46.000000)">
                <g transform="translate(761.000000, 0.000000)" id="Smoothie">
                    <g transform="translate(685.786757, 194.647957) rotate(-30.000000) translate(-685.786757, -194.647957) translate(661.286757, 140.147957)">
                        <path d="M2.09000893,48.2715461 L0.717430571,48.2715461 L6.36059146,95.1789171 C6.36059146,95.1789171 5.52774521,108.052188 24.6696084,108.052188 C43.8114716,108.052188 42.9998062,95.1789166 42.9998062,95.1789166 L48.6491898,48.2715461 L47.2492083,48.2715461 C45.333602,52.5400253 39.8551498,59.71466 24.6696083,59.71466 C9.48406845,59.71466 4.00561582,52.540026 2.09000893,48.2715461 Z" id="Path-46"></path>
                        <ellipse id="Oval-38" cx="24.3926394" cy="45.202575" rx="24.3926394" ry="14.9514719"></ellipse>
                        <path d="M19.6528231,15.594293 C10.4723836,17.3700232 3.58715285,24.6037142 3.58715285,30.9698875 C3.58715285,38.2890086 12.6879501,44.2223285 23.9143524,44.2223285 C35.1407547,44.2223285 44.2415519,38.2890086 44.2415519,30.9698875 C44.2415519,27.1277909 41.7337216,22.9697155 37.7270449,19.8861351 C36.544477,16.4335201 33.6934935,7.90921523 34.1587056,7.30081319 C34.7431436,6.53648798 38.2238584,7.21649156 37.6602451,3.97305199 C37.0966317,0.729612417 32.961902,-0.251338693 28.8604231,0.740134948 C25.7747145,1.48606071 21.5541074,10.9515885 19.6528231,15.594293 Z" id="Oval-38-Copy"></path>
                    </g>
                </g>
            </g>
        </g>
    </g>
</svg>