<?xml version="1.0" encoding="UTF-8"?>
<svg width="84px" height="67px" viewBox="0 0 84 67" version="1.1" xmlns="http://www.w3.org/2000/svg" xmlns:xlink="http://www.w3.org/1999/xlink">
    <!-- Generator: sketchtool 42 (36781) - http://www.bohemiancoding.com/sketch -->
    <title>ABA4E36D-F8C6-4C11-BC4B-1EB2C239CE76</title>
    <desc>Created with sketchtool.</desc>
    <defs></defs>
    <g id="Website" stroke="none" stroke-width="1" fill="none" fill-rule="evenodd" opacity="0.05">
        <g id="Desktop-/-First-Page" transform="translate(-477.000000, -483.000000)">
            <g id="Icons" transform="translate(-630.000000, 46.000000)">
                <g transform="translate(761.000000, 0.000000)" id="Soda">
                    <g transform="translate(388.952360, 468.495638) rotate(55.000000) translate(-388.952360, -468.495638) translate(372.452360, 423.495638)">
                        <path d="M16.4812697,0.000664350225 C15.0887956,-0.012673133 11.9906373,0.160276303 10.6174342,1.85563196 C8.81723326,4.07815874 11.2901516,12.6167677 8.98599379,16.4759685 C6.68183594,20.3351693 3.82350656,23.3566966 3.17553407,25.0224933 C2.52756158,26.6882899 1.67600398,27.3887504 0.683199611,34.2201502 C-0.309604761,41.0515501 -0.142015721,44.5766691 0.683199614,48.9301968 C1.50841495,53.2837245 2.97424172,58.5382639 2.97424169,62.6146231 C2.97424167,66.6909824 2.12982063,70.1059755 1.12342955,72.9829603 C0.117038477,75.8599451 -0.213075212,80.7452373 3.36313533,85.1468469 C6.12236086,88.5429091 12.8502452,89.1449397 15.7802122,89.242769 L15.7802122,89.2564984 C15.7802122,89.2564984 16.0361623,89.2637938 16.4812697,89.2586919 C16.926377,89.2637938 17.1823271,89.2564984 17.1823271,89.2564984 L17.1823271,89.242769 C20.1122942,89.1449397 26.8401785,88.5429091 29.599404,85.1468469 C33.1756146,80.7452373 32.8455009,75.8599451 31.8391098,72.9829603 C30.8327187,70.1059755 29.9882977,66.6909824 29.9882976,62.6146231 C29.9882976,58.5382639 31.4541244,53.2837245 32.2793397,48.9301968 C33.1045551,44.5766691 33.2721441,41.0515501 32.2793397,34.2201502 C31.2865354,27.3887504 30.4349778,26.6882899 29.7870053,25.0224933 C29.1390328,23.3566966 26.2807034,20.3351693 23.9765455,16.4759685 C21.6723877,12.6167677 24.1453061,4.07815874 22.3451052,1.85563196 C20.971902,0.160276303 17.8737438,-0.012673133 16.4812697,0.000664350225 Z" id="Path-63" stroke="#FC5314" stroke-width="3" fill="#FFFFFF"></path>
                        <path d="M16.3735652,74.1832838 L16.3832611,82.0076821 C16.3832611,82.0076821 22.4388583,82.2023757 24.5530953,79.2671425 C26.6673324,76.3319093 26.4721709,73.0741302 25.8771977,71.1556 C25.2822246,69.2370697 24.2809263,66.9597662 24.2809263,64.2414276 C24.2809263,61.5230891 25.6495964,58.0190759 26.1374594,55.1159063 C26.6253224,52.2127367 28.0562383,50.3941697 28.0562383,44.5541544 C28.0562383,38.7141392 27.597472,37.5202121 25.8771977,33.2319328 C24.7306697,30.3738813 21.5572264,28.8889167 19.1066352,28.3562283 C18.0186363,28.1197285 16.6650796,28.1947024 16.3735652,28.2146253 C16.0820509,28.1947024 14.7284941,28.1197285 13.6404952,28.3562283 C11.1899041,28.8889167 8.01646075,30.3738813 6.86993273,33.2319328 C5.1496585,37.5202121 4.6908922,38.7141392 4.69089219,44.5541544 C4.69089219,50.3941697 6.1218081,52.2127367 6.60967111,55.1159063 C7.09753411,58.0190759 8.4662042,61.5230891 8.46620418,64.2414276 C8.46620417,66.9597662 7.46490591,69.2370697 6.86993275,71.1556 C6.27495959,73.0741302 6.0797981,76.3319093 8.19403514,79.2671425 C10.3082722,82.2023757 16.3638694,82.0076821 16.3638694,82.0076821 L16.3735652,74.1832838 Z" id="Path-63-Copy-3" fill="#709AE2"></path>
                        <path d="M10.3199628,5.19596968 C10.3199628,5.19596968 12.8638895,7.5624009 16.7849626,7.5624009 C20.7060357,7.5624009 23.2499624,4.69792123 23.2499624,4.69792123" id="Path-67" stroke="#FC5314" stroke-width="3"></path>
                    </g>
                </g>
            </g>
        </g>
    </g>
</svg>