<?xml version="1.0" encoding="UTF-8"?>
<svg width="101px" height="95px" viewBox="0 0 101 95" version="1.1" xmlns="http://www.w3.org/2000/svg" xmlns:xlink="http://www.w3.org/1999/xlink">
    <!-- Generator: sketchtool 42 (36781) - http://www.bohemiancoding.com/sketch -->
    <title>BC0D7C23-2561-402E-93C7-1378AAE23A76</title>
    <desc>Created with sketchtool.</desc>
    <defs></defs>
    <g id="Website" stroke="none" stroke-width="1" fill="none" fill-rule="evenodd" opacity="0.05">
        <g id="Desktop-/-First-Page" transform="translate(-462.000000, -63.000000)">
            <g id="Icons" transform="translate(-630.000000, 46.000000)">
                <g transform="translate(761.000000, 0.000000)" id="Steamed-stuff-bun">
                    <g transform="translate(378.115091, 62.515185) rotate(21.000000) translate(-378.115091, -62.515185) translate(335.615091, 17.015185)">
                        <g id="Oval-1-Copy-15-+-Oval-14-Copy" transform="translate(0.000000, 34.814069)">
                            <path d="M24.1185582,34.8140689 C37.4199313,34.8140689 48.2028247,30.3388702 48.2028247,24.8184329 C48.2028247,19.2979955 50.1794629,-5.56308265e-14 24.1185582,-5.68434189e-14 C-1.94234659,-5.80560112e-14 0.0342916654,19.2979955 0.0342916654,24.8184329 C0.0342916654,30.3388702 10.8171851,34.8140689 24.1185582,34.8140689 Z" id="Oval-1-Copy-15" stroke="#FC5314" stroke-width="3" fill="#FFFFFF"></path>
                            <ellipse id="Oval-14-Copy" fill="#709AE2" cx="23.4091888" cy="6.14365922" rx="2.12810807" ry="2.04788641"></ellipse>
                        </g>
                        <g id="Oval-1-Copy-14-+-Oval-14" transform="translate(19.960186, 49.847417)">
                            <path d="M28.2769303,40.3526708 C43.8716436,40.3526708 56.5136565,35.1655087 56.5136565,28.7668199 C56.5136565,22.3681312 58.8310945,-2.70162047e-14 28.2769303,-2.84217094e-14 C-2.27723393,-2.98272142e-14 0.0402040215,22.3681312 0.0402040215,28.7668199 C0.0402040215,35.1655087 12.682217,40.3526708 28.2769303,40.3526708 Z" id="Oval-1-Copy-14" stroke="#FC5314" stroke-width="3" fill="#FFFFFF"></path>
                            <ellipse id="Oval-14" fill="#709AE2" cx="27.4452559" cy="7.12105955" rx="2.49502326" ry="2.37368652"></ellipse>
                        </g>
                        <path d="M61.9808502,2.26485497e-13 L61.9808502,6.8432319 C61.9808502,8.80190746 60.3896398,10.3897277 58.4356809,10.3897277 L54.8905117,10.3897277" id="Path-11" stroke="#FC5314" stroke-width="3" stroke-linecap="round"></path>
                        <path d="M24.9502326,5.53860187 L24.9502326,9.97376498 C24.9502326,11.2432011 25.970082,12.2722824 27.2478902,12.2722824 L29.5455478,12.2722824" id="Path-11-Copy-4" stroke="#FC5314" stroke-width="3" stroke-linecap="round"></path>
                        <path d="M77.345721,20.6757026 L77.345721,13.8324707 C77.345721,11.8737952 78.9369314,10.2859749 80.8908903,10.2859749 L84.4360595,10.2859749" id="Path-11-Copy-2" stroke="#FC5314" stroke-width="3" stroke-linecap="round"></path>
                        <path d="M41.1889897,23.0493891 L41.1889897,16.2061572 C41.1889897,14.2474817 39.5977793,12.6596614 37.6438204,12.6596614 L34.0986512,12.6596614" id="Path-11-Copy-3" stroke="#FC5314" stroke-width="3" stroke-linecap="round"></path>
                        <path d="M64.8706048,43.621339 L64.8706048,36.778107 C64.8706048,34.8194315 66.4618151,33.2316112 68.415774,33.2316112 L71.9609432,33.2316112" id="Path-11-Copy" stroke="#FC5314" stroke-width="3" stroke-linecap="round"></path>
                        <ellipse id="Oval-17-Copy" fill="#709AE2" cx="50.3163024" cy="20.1763354" rx="2.07918605" ry="1.9780721"></ellipse>
                        <ellipse id="Oval-17-Copy-2" fill="#709AE2" cx="76.9298838" cy="32.8359968" rx="2.07918605" ry="1.9780721"></ellipse>
                        <ellipse id="Oval-17-Copy-4" fill="#709AE2" cx="76.9298838" cy="26.5061661" rx="2.07918605" ry="1.9780721"></ellipse>
                        <ellipse id="Oval-17-Copy-3" fill="#709AE2" cx="50.3163024" cy="13.8465047" rx="2.07918605" ry="1.9780721"></ellipse>
                        <path d="M49.254368,25.3193228 L49.254368,34.6960314" id="Path-13" stroke="#FC5314" stroke-width="3" stroke-linecap="round" stroke-linejoin="round"></path>
                    </g>
                </g>
            </g>
        </g>
    </g>
</svg>