<?xml version="1.0" encoding="UTF-8"?>
<svg width="64px" height="88px" viewBox="0 0 64 88" version="1.1" xmlns="http://www.w3.org/2000/svg" xmlns:xlink="http://www.w3.org/1999/xlink">
    <!-- Generator: sketchtool 42 (36781) - http://www.bohemiancoding.com/sketch -->
    <title>69ACD0DB-5E1C-495E-83E6-E5323B3B62CD</title>
    <desc>Created with sketchtool.</desc>
    <defs>
        <path d="M22.0832771,40.5455273 C33.8012497,40.5455273 43.3005433,36.280067 43.3005433,31.018355 C43.3005433,25.7566431 33.8012497,23.1733999 22.0832771,23.1733999 C10.3653045,23.1733999 0.866010867,25.7566431 0.866010867,31.018355 C0.866010867,36.280067 10.3653045,40.5455273 22.0832771,40.5455273 Z" id="path-1"></path>
        <mask id="mask-2" maskContentUnits="userSpaceOnUse" maskUnits="objectBoundingBox" x="0" y="0" width="42.4345325" height="17.3721274" fill="white">
            <use xlink:href="#path-1"></use>
        </mask>
        <path d="M5.94157056,83.992614 C2.37702359,81.803497 -2.84217094e-14,77.8709908 -2.84217094e-14,73.382433 L-2.84217094e-14,60.937459 L0.606577075,60.937459 L0.903602764,60.937459 C1.56922964,66.0376287 10.9910779,70.0813789 22.5162825,70.0813789 C34.0414872,70.0813789 43.4633354,66.0376287 44.1289623,60.937459 L45.0325651,60.937459 L45.0325651,73.3825499 C45.0325651,77.8807313 42.6480914,81.8215179 39.0695793,84.0078369 C35.0981229,86.8271733 29.1562799,88.9634085 22.5162825,88.9634085 C15.8643396,88.9634085 9.91306521,86.8194801 5.94157056,83.992614 Z" id="path-3"></path>
        <mask id="mask-4" maskContentUnits="userSpaceOnUse" maskUnits="objectBoundingBox" x="0" y="0" width="45.0325651" height="28.0259495" fill="white">
            <use xlink:href="#path-3"></use>
        </mask>
    </defs>
    <g id="Website" stroke="none" stroke-width="1" fill="none" fill-rule="evenodd" opacity="0.05">
        <g id="Desktop-/-First-Page" transform="translate(-345.000000, -475.000000)" stroke="#FC5314">
            <g id="Icons" transform="translate(-630.000000, 46.000000)">
                <g transform="translate(761.000000, 0.000000)" id="Water">
                    <g transform="translate(244.509495, 472.831546) rotate(-25.000000) translate(-244.509495, -472.831546) translate(221.009495, 428.331546)">
                        <g id="Group" transform="translate(0.117792, 0.000000)">
                            <path d="M22.5162825,39.0529145 C34.4733974,39.0529145 44.1665542,34.700404 44.1665542,29.3313101 C44.1665542,23.9622163 34.8666404,12.8741111 22.9095255,12.8741111 C10.9524107,12.8741111 0.866010867,23.9622163 0.866010867,29.3313101 C0.866010867,34.700404 10.5591677,39.0529145 22.5162825,39.0529145 Z" id="Oval-1-Copy-4" stroke-width="3" fill="#FFFFFF"></path>
                            <use id="Oval-1-Copy-3" mask="url(#mask-2)" stroke-width="6" fill="#FFFFFF" xlink:href="#path-1"></use>
                            <path d="M22.5162825,22.3151258 C17.4468334,22.3151258 13.1040741,20.9936117 11.2933863,19.117406 C10.7646283,18.6650089 10.4217764,18.002999 10.3939613,17.255891 C10.3927424,17.2258166 10.3921304,17.1956794 10.3921304,17.1654814 C10.3921304,17.1641847 10.3921315,17.162888 10.3921338,17.1615915 C10.3921315,17.1601769 10.3921304,17.1587621 10.3921304,17.157347 L10.3921304,6.0079185 L22.5162825,6.0079185 L22.5162825,22.3151258 Z M22.5162825,22.3151258 L22.5162825,6.0079185 L34.6404347,6.0079185 L34.6404347,17.157347 C34.6404347,17.1587621 34.6404335,17.1601769 34.6404313,17.1615915 C34.6404335,17.162888 34.6404347,17.1641847 34.6404347,17.1654814 C34.6404347,17.1956794 34.6398227,17.2258166 34.6386037,17.255891 C34.6107886,18.002999 34.2679368,18.6650089 33.7391788,19.117406 C31.928491,20.9936117 27.5857317,22.3151258 22.5162825,22.3151258 Z" id="Oval-1-Copy" stroke-width="3" fill="#FFFFFF"></path>
                            <ellipse id="Oval-1" stroke-width="3" fill="#709AE2" cx="22.5162825" cy="5.14964442" rx="12.1241521" ry="5.14964442"></ellipse>
                            <path d="M1.2990163,29.6104554 L1.2990163,60.6154196" id="Line" stroke-width="3" stroke-linecap="square"></path>
                            <path d="M43.7335488,29.6104554 L43.7335488,60.6154196" id="Line-Copy" stroke-width="3" stroke-linecap="square"></path>
                            <use id="Rectangle-1-Copy" mask="url(#mask-4)" stroke-width="6" fill="#FFFFFF" xlink:href="#path-3"></use>
                            <path d="M22.5162825,71.231084 C34.1811345,71.231084 43.6373655,67.0698825 43.6373655,61.9367804 C43.6373655,56.8036784 34.1811345,54.2835764 22.5162825,54.2835764 C10.8514305,54.2835764 1.3951996,56.8036784 1.3951996,61.9367804 C1.3951996,67.0698825 10.8514305,71.231084 22.5162825,71.231084 Z" id="Oval-1-Copy-5" stroke-width="3" fill="#FFFFFF"></path>
                        </g>
                    </g>
                </g>
            </g>
        </g>
    </g>
</svg>